<?xml version="1.0" standalone="no"?>
<!DOCTYPE svg PUBLIC "-//W3C//DTD SVG 20010904//EN"
 "http://www.w3.org/TR/2001/REC-SVG-20010904/DTD/svg10.dtd">
<svg version="1.0" xmlns="http://www.w3.org/2000/svg"
 width="256.000000pt" height="256.000000pt" viewBox="0 0 256.000000 256.000000"
 preserveAspectRatio="xMidYMid meet">

<g transform="translate(0.000000,256.000000) scale(0.100000,-0.100000)"
fill="#000000" stroke="none">
<path d="M707 2090 c-26 -20 -27 -26 -27 -104 0 -96 16 -126 75 -146 l35 -12
0 -418 0 -418 -30 -12 c-74 -30 -80 -42 -80 -145 0 -86 2 -95 22 -109 20 -14
99 -16 663 -16 l642 0 21 23 c22 23 22 27 20 308 l-3 284 -84 3 c-80 3 -83 4
-77 25 4 12 10 65 13 118 18 291 -150 535 -423 615 -49 14 -115 18 -399 21
-336 5 -341 4 -368 -17z m716 -85 c143 -30 274 -128 331 -248 37 -80 60 -205
51 -290 -9 -98 -21 -126 -84 -193 l-54 -59 22 42 c25 51 51 166 51 232 0 184
-100 360 -243 431 -68 33 -167 51 -167 30 0 -6 10 -15 22 -18 13 -3 58 -23
100 -44 223 -112 301 -380 182 -623 -31 -62 -97 -134 -179 -195 -33 -24 -53
-46 -46 -48 7 -2 -1 -14 -20 -28 -28 -20 -44 -24 -110 -24 -98 0 -107 3 -101
39 4 27 8 29 58 33 77 7 191 65 248 129 108 120 145 307 91 464 -54 157 -170
247 -337 262 l-66 6 -6 -324 c-8 -369 -11 -441 -21 -520 -5 -38 -4 -58 4 -63
6 -4 11 -25 11 -48 0 -33 -3 -39 -16 -34 -12 5 -15 2 -10 -11 5 -13 4 -15 -4
-7 -7 7 -10 168 -8 543 l3 532 -105 -3 c-88 -3 -104 -5 -100 -18 3 -8 5 -240
5 -515 l-1 -500 -28 -42 c-16 -24 -35 -43 -42 -43 -7 0 -21 -11 -30 -25 -9
-14 -25 -25 -35 -25 -16 0 -19 8 -19 43 0 40 2 44 35 56 65 23 65 19 65 519 0
432 -1 450 -20 474 -11 14 -33 28 -50 31 -28 6 -30 9 -30 52 l0 45 293 0 c215
0 310 -4 360 -15z m-424 -592 c0 -285 -4 -527 -8 -538 -9 -23 -21 423 -21 792
0 227 2 263 15 263 13 0 15 -64 14 -517z m71 2 c0 -337 -3 -515 -10 -515 -7 0
-10 178 -10 515 0 337 3 515 10 515 7 0 10 -178 10 -515z m275 366 c49 -22
110 -88 139 -150 17 -38 21 -65 21 -151 0 -94 -3 -111 -28 -165 -43 -93 -135
-175 -197 -175 -20 0 -20 5 -20 330 l0 330 23 0 c12 0 40 -9 62 -19z m610
-666 c-5 -91 -12 -135 -26 -161 l-18 -36 -3 78 -3 79 -22 -40 c-29 -56 -99
-118 -156 -140 -26 -10 -47 -24 -47 -31 0 -12 -48 -14 -265 -14 -146 0 -265 3
-265 8 1 38 84 55 225 46 112 -8 232 9 303 41 93 43 185 155 226 278 3 10 16
17 32 17 l26 0 -7 -125z m-95 -200 c0 -8 -7 -15 -15 -15 -16 0 -20 12 -8 23
11 12 23 8 23 -8z m43 -62 c-7 -2 -21 -2 -30 0 -10 3 -4 5 12 5 17 0 24 -2 18
-5z"/>
<path d="M1332 1548 c-7 -7 -12 -35 -12 -63 0 -59 12 -75 55 -75 61 0 94 74
55 123 -23 29 -76 37 -98 15z m55 -60 c-3 -8 -6 -5 -6 6 -1 11 2 17 5 13 3 -3
4 -12 1 -19z"/>
</g>
</svg>
